<svg version="1.1" id="Capa_1" xmlns="http://www.w3.org/2000/svg" xmlns:xlink="http://www.w3.org/1999/xlink" x="0px" y="0px"
     viewBox="0 0 462.096 462.096" style="enable-background:new 0 0 462.096 462.096;" xml:space="preserve">
    <path d="M66.907,433.456H33.816c-3.955,0-7.229-3.07-7.484-7.017L7.898,141.137c-0.267-4.133,2.867-7.701,7.001-7.968
        c4.132-0.265,7.701,2.868,7.968,7.001l17.98,278.286h18.56v-151.83c0-14.341,6.43-27.785,17.641-36.883
        c3.215-2.61,7.939-2.12,10.549,1.097c2.61,3.216,2.119,7.939-1.097,10.549c-7.685,6.237-12.093,15.436-12.093,25.236v159.33
        C74.407,430.098,71.049,433.456,66.907,433.456z"/>
    <path d="M454.596,363.456h-30c-4.143,0-7.5-3.358-7.5-7.5s3.357-7.5,7.5-7.5h30c4.143,0,7.5,3.358,7.5,7.5
        S458.739,363.456,454.596,363.456z"/>
    <path d="M229.941,363.457c-13.292,0-30.032-8.27-38.109-18.826L117.95,248.07c-2.517-3.29-1.891-7.997,1.399-10.514
        c3.289-2.518,7.996-1.891,10.514,1.399l73.881,96.561c5.275,6.894,17.517,12.941,26.197,12.941l164.655-0.001
        c4.142,0,7.5,3.358,7.5,7.5s-3.357,7.5-7.5,7.5L229.941,363.457z"/>
    <path d="M454.596,433.456H249.864c-21.817,0-48.701-14.006-61.202-31.887L9.236,144.952c-8.221-11.758-11.538-31.764-7.551-45.545
        l18.906-65.35c0.768-2.653,2.932-4.67,5.633-5.249c2.702-0.58,5.502,0.375,7.29,2.48l210.561,248.105
        c7.586,8.94,18.395,14.277,28.915,14.278c7.119,0,13.52-2.379,18.511-6.88l29.05-26.195c2.101-1.894,5.087-2.447,7.723-1.427
        l91.707,35.389c23.224,8.962,42.117,36.505,42.117,61.398v70C462.096,430.098,458.739,433.456,454.596,433.456z M31.117,51.646
        l-15.023,51.93c-2.727,9.423-0.187,24.741,5.435,32.781l179.427,256.618c9.657,13.813,32.055,25.482,48.909,25.482h197.232v-62.5
        c0-18.894-14.892-40.602-32.518-47.404l-87.407-33.73l-25.627,23.108c-7.792,7.026-17.667,10.74-28.555,10.74
        c-15.091-0.001-29.798-7.135-40.354-19.572L31.117,51.646z"/>
    <path d="M66.907,404.772H31.962c-4.142,0-7.5-3.358-7.5-7.5s3.358-7.5,7.5-7.5h34.944c4.142,0,7.5,3.358,7.5,7.5
        S71.049,404.772,66.907,404.772z"/>
</svg>
