<svg version="1.1" id="Capa_1" xmlns="http://www.w3.org/2000/svg" xmlns:xlink="http://www.w3.org/1999/xlink" x="0px" y="0px"
     viewBox="0 0 205.602 205.602" style="enable-background:new 0 0 205.602 205.602;" xml:space="preserve">
<path d="M192.107,205.602H75.44c-1.657,0-3-1.343-3-3v-96.739c0-23.49,17.937-42.87,40.833-45.161V34.065c0-1.657,1.343-3,3-3h14.5
    V27h-6.25c-1.657,0-3-1.343-3-3V3c0-1.657,1.343-3,3-3h18.5c1.657,0,3,1.343,3,3v21c0,1.657-1.343,3-3,3h-6.25v4.065h14.5
    c1.657,0,3,1.343,3,3v26.636c22.896,2.292,40.834,21.671,40.834,45.161v96.739C195.107,204.258,193.764,205.602,192.107,205.602z
     M78.44,199.602h110.667v-93.739c0-21.718-17.669-39.388-39.388-39.388h-31.892c-21.719,0-39.388,17.669-39.388,39.388V199.602z
     M119.273,60.475h29v-23.41h-29V60.475z M133.773,21h6.25V6h-12.5v15H133.773z M59.745,205.602h-46.25c-1.657,0-3-1.343-3-3V137
    c0-1.657,1.343-3,3-3h46.25c1.657,0,3,1.343,3,3v65.602C62.745,204.258,61.402,205.602,59.745,205.602z M16.495,199.602h40.25V140
    h-40.25V199.602z M180.956,195.746c-0.757,0-1.514-0.284-2.097-0.854c-0.2-0.192-14.708-13.854-45.086-13.854
    c-30.438,0-44.944,13.717-45.087,13.856c-1.188,1.149-3.084,1.128-4.238-0.055c-1.155-1.183-1.139-3.073,0.039-4.231
    c0.647-0.636,16.22-15.569,49.286-15.569c33.067,0,48.639,14.934,49.286,15.57c1.181,1.161,1.197,3.061,0.036,4.242
    C182.507,195.446,181.732,195.746,180.956,195.746z M117.827,136.701c-0.936,0-1.807-0.197-2.633-0.61
    c-2.274-1.137-3.399-3.608-3.344-7.344c0.003-0.171,0.007-0.343,0.013-0.517c-7.406,5.356-16.524,7.511-21.593,4.57
    c-1.536-0.891-4.913-3.617-3.096-9.673c3.51-11.698,15.056-18.288,15.546-18.562c1.443-0.812,3.273-0.297,4.084,1.148
    c0.81,1.443,0.298,3.27-1.144,4.082l0,0c-0.099,0.056-9.938,5.715-12.74,15.056c-0.651,2.172,0.058,2.583,0.36,2.759
    c2.965,1.719,12.405-0.749,18.87-7.555c0.358-0.378,0.735-0.768,1.126-1.169c3.584-14.599,13.216-32.172,20.939-36.299
    c3.428-1.83,5.91-0.829,7.085-0.069c1.924,1.245,3.06,3.068,3.285,5.272c0.74,7.263-8.932,17.419-21.652,29.943
    c-1.489,1.466-2.927,2.881-4.228,4.191c-0.521,2.458-0.825,4.797-0.856,6.912c-0.016,1.011,0.092,1.572,0.175,1.849
    c2.502-0.155,9.949-5.917,14.469-9.414c7.903-6.114,15.368-11.89,21.114-12.281c3.603-0.245,8.661-0.178,11.038,3.221
    c2.408,3.444,0.424,7.908-0.89,10.862c-0.164,0.371-0.176,0.644,0.238,1.023c1.308,1.2,5.607,1.883,11.583-1.402
    c1.451-0.8,3.274-0.268,4.074,1.183c0.798,1.452,0.269,3.276-1.184,4.075c-8.84,4.86-15.509,3.341-18.533,0.563
    c-2.261-2.077-2.897-5.096-1.661-7.879c1.587-3.571,1.667-4.683,1.455-4.986c-0.008-0.01-0.845-1.006-5.713-0.673
    c-3.926,0.268-11.646,6.241-17.851,11.041C127.706,132.563,122.108,136.701,117.827,136.701z M138,87.553
    c-0.168,0-0.849,0.09-2.19,1.162c-4.219,3.369-9.45,11.829-13.177,20.875c7.408-7.408,16.411-16.997,15.983-21.189
    c-0.028-0.276-0.091-0.531-0.575-0.844C138.04,87.555,138.026,87.553,138,87.553z"/>
</svg>
